<svg xmlns="http://www.w3.org/2000/svg" xmlns:xlink="http://www.w3.org/1999/xlink" width="500" zoomAndPan="magnify" viewBox="0 0 375 374.999991" height="500" preserveAspectRatio="xMidYMid meet" version="1.0"><path fill="#004aad" d="M 202.832031 162.988281 C 200.890625 166.816406 195.875 167.894531 191.691406 165.367188 C 170.832031 152.769531 149.6875 139.996094 128.257812 127.050781 C 123.890625 124.414062 122.078125 119.105469 124.238281 115.28125 C 134.789062 96.589844 145.121094 78.277344 155.25 60.328125 C 157.273438 56.742188 162.328125 55.980469 166.484375 58.613281 C 192.558594 75.121094 215.847656 97.78125 240.554688 93.359375 C 264.332031 89.105469 269.871094 60.355469 279.375 41.347656 C 281.027344 38.039062 285.433594 37.371094 289.160156 39.851562 C 307.460938 52.023438 325.539062 64.050781 343.398438 75.929688 C 346.984375 78.3125 348.691406 82.96875 347.199219 86.285156 C 339.734375 102.882812 332.132812 119.785156 324.386719 137.003906 C 322.804688 140.527344 318.445312 141.464844 314.699219 139.074219 C 291.15625 124.0625 268.398438 101.984375 244.835938 106.386719 C 220.628906 110.910156 214.773438 139.5 202.832031 162.988281 Z M 12.851562 71.808594 C 8.140625 68.980469 6.332031 63.496094 8.824219 59.636719 C 21.015625 40.792969 32.949219 22.339844 44.640625 4.277344 C 46.972656 0.667969 52.539062 0.03125 57.007812 2.839844 C 78.921875 16.628906 100.542969 30.226562 121.875 43.648438 C 126.15625 46.339844 127.929688 51.488281 125.820312 55.109375 C 112.246094 78.40625 90.519531 98.542969 99.929688 126.367188 C 109.296875 154.054688 144.410156 165.835938 168.90625 180.40625 C 173.1875 182.953125 175.011719 188.257812 172.96875 192.21875 C 162.730469 212.054688 152.28125 232.304688 141.609375 252.984375 C 139.421875 257.21875 133.953125 258.625 129.445312 256.082031 C 106.96875 243.417969 84.175781 230.566406 61.054688 217.535156 C 56.339844 214.878906 54.464844 209.210938 56.894531 204.96875 C 71.792969 178.96875 94.679688 156.308594 85.363281 128.640625 C 76.105469 101.136719 41.878906 89.210938 12.851562 71.808594 Z M 191.910156 218.355469 C 193.910156 214.347656 199 213.121094 203.214844 215.609375 C 223.894531 227.8125 244.300781 239.851562 264.4375 251.734375 C 268.476562 254.117188 270.308594 259.324219 268.511719 263.324219 C 259.515625 283.347656 250.335938 303.777344 240.96875 324.628906 C 239.050781 328.894531 234.011719 330.46875 229.765625 328.097656 C 202.601562 312.921875 177.636719 289.90625 149.714844 297.726562 C 121.253906 305.695312 112.886719 342.125 99.53125 368.4375 C 97.136719 373.148438 91.257812 374.980469 86.460938 372.484375 C 62.515625 360.035156 38.210938 347.402344 13.539062 334.574219 C 8.507812 331.957031 6.570312 325.917969 9.238281 321.1875 C 22.253906 298.097656 34.976562 275.53125 47.417969 253.457031 C 49.902344 249.054688 55.828125 247.625 60.585938 250.257812 C 89.898438 266.480469 116.921875 290.667969 145.160156 283 C 172.570312 275.554688 179.265625 243.683594 191.914062 218.355469 Z M 225.332031 200.144531 C 221.210938 197.671875 219.390625 192.464844 221.296875 188.59375 C 230.601562 169.667969 239.722656 151.113281 248.667969 132.917969 C 250.457031 129.285156 255.136719 128.34375 259.066406 130.816406 C 278.351562 142.945312 297.394531 154.914062 316.195312 166.738281 C 319.96875 169.113281 321.738281 174.011719 320.128906 177.648438 C 309.789062 201.019531 292.390625 221.742188 301.792969 248.171875 C 311.148438 274.464844 341.539062 283.996094 363.085938 296.808594 C 366.855469 299.050781 368.675781 304.089844 367.132812 308.035156 C 359.429688 327.757812 351.570312 347.871094 343.554688 368.386719 C 341.917969 372.582031 337.347656 374.214844 333.402344 371.992188 C 313.726562 360.90625 293.789062 349.675781 273.582031 338.292969 C 269.460938 335.972656 267.589844 330.609375 269.421875 326.390625 C 280.671875 300.527344 298.875 277.421875 289.570312 251.160156 C 280.316406 225.039062 250.746094 215.378906 225.328125 200.144531 Z M 225.332031 200.144531 " fill-opacity="1" fill-rule="evenodd"/></svg>